<svg width="50" height="50" viewBox="0 0 50 50" fill="none" xmlns="http://www.w3.org/2000/svg">
<path fill-rule="evenodd" clip-rule="evenodd" d="M27.611 30.28L28.379 34.12H29.8C30.0651 34.12 30.28 34.3349 30.28 34.6C30.28 34.8651 30.0651 35.08 29.8 35.08H20.2C19.9349 35.08 19.72 34.8651 19.72 34.6C19.72 34.3349 19.9349 34.12 20.2 34.12H21.832L22.6 30.28H18.28C16.5873 30.28 15.187 29.0283 14.954 27.4H35.046C34.8131 29.0283 33.4127 30.28 31.72 30.28H27.611Z" fill="#03014C"/>
<path d="M14.92 26.44V16.36C14.92 15.5648 15.5647 14.92 16.36 14.92H33.64C34.4353 14.92 35.08 15.5648 35.08 16.36V26.44H14.92Z" fill="#10C6FF"/>
<path opacity="0.15" d="M0 12C0 5.37258 5.37258 0 12 0H38C44.6274 0 50 5.37258 50 12V38C50 44.6274 44.6274 50 38 50H12C5.37258 50 0 44.6274 0 38V12Z" fill="#10C6FF"/>
</svg>
