<svg width="93" height="24" viewBox="0 0 93 24" fill="none" xmlns="http://www.w3.org/2000/svg">
<path d="M56.6779 18.3527H56.6472C56.6626 18.3527 56.6626 18.3681 56.6779 18.3681H56.6933L56.6779 18.3527ZM56.6779 18.3681C56.5552 18.3681 56.2331 18.4294 55.8957 18.4294C54.8374 18.4294 54.4693 17.9386 54.4693 17.2944V13.0306H56.6319C56.7546 13.0306 56.8466 12.9233 56.8466 12.7699V10.454C56.8466 10.3313 56.7393 10.2239 56.6319 10.2239H54.4693V7.34046C54.4693 7.2331 54.3926 7.17175 54.2699 7.17175H51.3252C51.2025 7.17175 51.1411 7.24844 51.1411 7.34046V10.3006C51.1411 10.3006 49.6534 10.6687 49.5613 10.684C49.454 10.7147 49.3926 10.8067 49.3926 10.9141V12.7699C49.3926 12.9233 49.5 13.0306 49.6227 13.0306H51.1258V17.5092C51.1258 20.8374 53.4417 21.1748 55.0215 21.1748C55.7423 21.1748 56.6166 20.9448 56.7546 20.8681C56.8313 20.8374 56.8773 20.7454 56.8773 20.6533V18.6135C56.8773 18.4908 56.8006 18.3987 56.6779 18.3681ZM88.9785 15.3773C88.9785 12.9079 87.9816 12.5859 86.9387 12.6932C86.1258 12.7392 85.4663 13.1533 85.4663 13.1533V17.954C85.4663 17.954 86.1258 18.4141 87.1227 18.4448C88.5184 18.4754 88.9785 17.9693 88.9785 15.3773ZM92.2914 15.1625C92.2914 19.8405 90.773 21.1748 88.135 21.1748C85.8957 21.1748 84.6994 20.0398 84.6994 20.0398C84.6994 20.0398 84.6534 20.6687 84.5767 20.7454C84.5307 20.8221 84.4693 20.8527 84.3773 20.8527H82.3681C82.2301 20.8527 82.1074 20.7454 82.1074 20.6227L82.138 5.48463C82.138 5.36193 82.2454 5.25457 82.3681 5.25457H85.2669C85.3896 5.25457 85.4969 5.36193 85.4969 5.48463V10.6227C85.4969 10.6227 86.6166 9.90181 88.2577 9.90181L88.2423 9.87114C89.8681 9.87114 92.2914 10.4846 92.2914 15.1625ZM80.4049 10.2392H77.5368C77.3834 10.2392 77.3067 10.3466 77.3067 10.5V17.9079C77.3067 17.9079 76.5552 18.4294 75.5276 18.4294C74.5153 18.4294 74.2086 17.9693 74.2086 16.9417V10.4693C74.2086 10.3466 74.1012 10.2392 73.9785 10.2392H71.0644C70.9417 10.2392 70.8344 10.3466 70.8344 10.4693V17.4478C70.8344 20.4386 72.5061 21.1902 74.8067 21.1902C76.7086 21.1902 78.2423 20.1472 78.2423 20.1472C78.2423 20.1472 78.319 20.684 78.3497 20.7607C78.3804 20.8221 78.4724 20.8834 78.5644 20.8834H80.3896C80.5429 20.8834 80.6196 20.776 80.6196 20.6533L80.6503 10.4693C80.6656 10.3466 80.5429 10.2392 80.4049 10.2392ZM48.1043 10.2239H45.2055C45.0828 10.2239 44.9755 10.3466 44.9755 10.5V20.5C44.9755 20.776 45.1595 20.8681 45.3896 20.8681H48.0123C48.2883 20.8681 48.3497 20.7454 48.3497 20.5V10.454C48.3344 10.3313 48.227 10.2239 48.1043 10.2239ZM46.6626 5.60733C45.6196 5.60733 44.7761 6.43555 44.7761 7.49384C44.7761 8.53678 45.6043 9.38034 46.6626 9.38034C47.6902 9.38034 48.5184 8.55212 48.5184 7.49384C48.5184 6.45089 47.6902 5.60733 46.6626 5.60733ZM69.1472 5.26991H66.2638C66.1411 5.26991 66.0337 5.37727 66.0337 5.49997V11.0675H61.5245V5.49997C61.5245 5.37727 61.4172 5.26991 61.2945 5.26991H58.3957C58.273 5.26991 58.1656 5.37727 58.1656 5.49997V20.638C58.1656 20.7607 58.2883 20.8681 58.3957 20.8681H61.2945C61.4172 20.8681 61.5245 20.7607 61.5245 20.638V14.1656H66.0337L66.0031 20.638C66.0031 20.7607 66.1104 20.8681 66.2331 20.8681H69.1319C69.2546 20.8681 69.362 20.7607 69.362 20.638V5.49997C69.3773 5.37727 69.2699 5.26991 69.1472 5.26991ZM43.4264 11.9724V19.7944C43.4264 19.8405 43.411 19.9478 43.3497 19.9632C43.3497 19.9632 41.6472 21.1748 38.8405 21.1748C35.4509 21.1748 31.4172 20.1165 31.4172 13.1073C31.4172 6.09813 34.9294 4.65641 38.365 4.67175C41.3405 4.67175 42.5368 5.3466 42.7209 5.46929C42.7669 5.54598 42.7975 5.592 42.7975 5.65335L42.2454 8.09199C42.2454 8.21469 42.1227 8.36807 41.9693 8.32206C41.4785 8.16868 40.7423 7.87727 39.0092 7.87727C37 7.87727 34.8528 8.44475 34.8528 12.9693C34.8528 17.4785 36.8926 18.0153 38.365 18.0153C39.6227 18.0153 40.0675 17.8619 40.0675 17.8619V14.7331H38.0583C37.9049 14.7331 37.7975 14.6257 37.7975 14.503V11.9877C37.7975 11.865 37.9049 11.7576 38.0583 11.7576H43.1656C43.319 11.7423 43.4264 11.8497 43.4264 11.9724Z" fill="white"/>
<path fill-rule="evenodd" clip-rule="evenodd" d="M11.9387 0.791382C5.4816 0.791382 0.251534 6.02145 0.251534 12.4785C0.251534 17.6472 3.59509 22.0184 8.24233 23.5675C8.82515 23.6595 9.05521 23.3221 9.05521 23.0153C9.05521 22.7392 9.03988 21.819 9.03988 20.8374C6.11043 21.3742 5.34356 20.1165 5.1135 19.4724C4.97546 19.1349 4.40798 18.092 3.91718 17.8159C3.50307 17.6012 2.92025 17.049 3.90184 17.0337C4.82209 17.0184 5.4816 17.8773 5.69632 18.23C6.7546 19.9938 8.42638 19.503 9.10123 19.1963C9.20859 18.4448 9.51534 17.9233 9.85276 17.6319C7.26074 17.3405 4.53067 16.3282 4.53067 11.865C4.53067 10.592 4.9908 9.53372 5.72699 8.72083C5.60429 8.42942 5.20552 7.2331 5.84969 5.62267C5.84969 5.62267 6.83129 5.31592 9.07055 6.81899C10.0061 6.55826 11.0031 6.42022 11.9847 6.42022C12.9816 6.42022 13.9632 6.55826 14.8988 6.81899C17.138 5.30059 18.1043 5.62267 18.1043 5.62267C18.7485 7.2331 18.3344 8.42942 18.227 8.72083C18.9785 9.53372 19.4233 10.5767 19.4233 11.865C19.4233 16.3435 16.6933 17.3405 14.0859 17.6319C14.5153 18 14.8834 18.6902 14.8834 19.7944C14.8834 21.3589 14.8681 22.6165 14.8681 23C14.8681 23.3067 15.0828 23.6748 15.6656 23.5521C20.4202 21.9417 23.6258 17.4785 23.6258 12.4632C23.6258 6.02144 18.3957 0.791382 11.9387 0.791382Z" fill="white"/>
</svg>
