<svg width="153" height="26" viewBox="0 0 153 26" fill="none" xmlns="http://www.w3.org/2000/svg">
<path d="M36 12.4834V20.9667H36.7558H37.5116L37.5721 14.047L37.6628 7.1272L42.6512 13.9804C46.0674 18.638 47.8512 20.8337 48.3349 20.9002L49 21V12.5166C49 4.23288 48.9698 4 48.3953 4C47.8209 4 47.7907 4.23288 47.7907 11.3523V18.7378L42.4698 11.3523C38.9326 6.49511 36.9372 4 36.5744 4C36.0302 4 36 4.43249 36 12.4834Z" fill="white"/>
<path d="M55.5714 4.53932C49.6896 7.54072 49.4223 17.906 55.1258 21.2913C57.2349 22.5477 60.4135 22.094 62.2553 20.2443C65.0179 17.5221 65.8497 11.8334 64.0376 8.34342C62.1067 4.67892 58.4826 3.07353 55.5714 4.53932ZM61.0967 6.73802C64.3941 9.46021 64.6912 15.2885 61.7206 18.7785C60.6214 20.0698 60.0867 20.4188 58.9579 20.6282C57.2052 20.9423 56.5517 20.7678 54.9179 19.5114C52.7493 17.8711 51.7096 14.067 52.482 10.7515C52.8979 8.90181 54.8585 6.28432 56.1655 5.79572C57.6805 5.27222 59.7897 5.65612 61.0967 6.73802Z" fill="white"/>
<path d="M67 4.23564C67 4.40396 68.4444 8.20792 70.1653 12.7525C73.054 20.2931 73.3921 21 74.0681 21C74.7442 21 75.0823 20.2594 78.0939 12.4832C81.2899 4.20198 81.3514 3.96634 80.6139 4.06733C79.907 4.16832 79.569 4.84159 77.0183 11.6416C75.5125 15.7822 74.1603 19.1485 74.0681 19.1485C73.9452 19.1485 72.6238 15.7485 71.118 11.5743C68.6902 4.84159 68.3214 4 67.7068 4C67.3073 4 67 4.10099 67 4.23564Z" fill="white"/>
<path d="M85.3836 11.2333C83.9252 15.2333 82.5525 19.0667 82.2952 19.7333C81.8662 21 81.8662 21 82.5525 21C83.1245 21 83.3532 20.6 84.1825 18.3333L85.1262 15.6333L88.5292 15.7333L91.9608 15.8333L92.8473 18.3333C93.5622 20.3333 93.8768 20.8667 94.4201 20.9333C94.7919 21 95.0492 20.9 94.992 20.7333C94.9349 20.5333 93.5908 16.7 92.018 12.2C89.6159 5.33333 89.0725 4 88.5864 4C88.1003 4 87.5569 5.2 85.3836 11.2333ZM90.1306 10.3C90.9313 12.5667 91.589 14.4667 91.589 14.5333C91.589 14.6 90.1878 14.6667 88.472 14.6667H85.3264L86.6418 11.0667C87.3282 9.1 88.0431 7.13333 88.1861 6.7C88.329 6.26667 88.5006 5.96667 88.5578 6.03333C88.615 6.1 89.3299 8.03333 90.1306 10.3Z" fill="white"/>
<path d="M97 12.5V21H102.5H108V19.6667V18.3333H104.028H100.056V11.1667V4H98.5278H97V12.5Z" fill="white"/>
<path d="M113.117 12.5166L110 21H111.543H113.053L113.824 18.9041L114.628 16.8415L117.552 16.7417L120.477 16.6419L121.28 18.7378L122.051 21L123.554 21C124.397 21 125 21 125 21C124.968 20.8669 123.69 16.8415 122.051 12.3503L119.095 4.03326H117.649L116.202 4L113.117 12.5166ZM118.87 11.2192C119.448 12.9824 119.866 14.4795 119.802 14.5793C119.705 14.6458 118.645 14.6791 117.424 14.6125L115.174 14.5127L116.299 11.2524C116.909 9.48923 117.488 8.02544 117.617 8.02544C117.713 8.02544 118.291 9.45597 118.87 11.2192Z" fill="white"/>
<path d="M127 13V22H131.555C137.599 22 138.636 21.5244 138.94 17.9949C139.092 15.9832 139.057 14.5882 137.599 13.5647C136.718 12.9294 136.688 12.8941 137.235 12.4353C139.604 10.4235 139.269 5.44706 136.658 4.38823C136.141 4.17647 133.742 4 131.373 4H127V13ZM136.074 7.49874C136.5 7.95756 136.658 9.11614 136.658 9.53967C136.658 9.9279 136.5 10.8302 136.074 11.289C135.437 12.0655 134.35 11.7647 132.315 11.7647H130.037V9.29412V6.82353H132.315C134.35 6.82353 135.437 6.72227 136.074 7.49874ZM135.959 15.1176C136.87 16.1412 136.749 17.7402 135.959 18.8696C135.443 19.6108 135.261 19.3529 132.801 19.4588H130.037V16.9176V14.2353H132.618C134.987 14.2353 135.291 14.3059 135.959 15.1176Z" fill="white"/>
<path d="M144.689 5.57941C142.992 6.47432 142.158 7.99898 142.158 10.1202C142.158 12.7718 143.165 13.733 147.363 15.1914C149.52 15.9206 150.383 16.7492 150.124 17.8761C150.038 18.2407 149.779 18.7047 149.549 18.9368C148.83 19.6328 146.328 19.4008 144.344 18.4396C142.618 17.611 142.561 17.611 142.273 18.2076C142.101 18.539 142 19.2516 142 19.7488C142 20.478 142 20.9917 142 20.8674C142 20.9917 142.108 20.9917 142.539 21.116C142.942 21.3812 144.78 21.7738 144.867 21.7738C144.953 21.7738 144.48 21.6132 144.48 21.6132C145.429 22.2098 149.721 22.1187 150.929 21.3232C152.367 20.3288 152.971 19.1688 152.999 17.2795C153.028 14.4622 151.935 13.3021 148.025 12.1089C145.149 11.214 144.142 9.75565 145.465 8.39672C146.299 7.53495 148.657 7.60124 150.21 8.5293L151.389 9.22534L152.022 7.93269L152.626 6.67319L151.274 5.91086C149.376 4.85023 146.328 4.6845 144.689 5.57941Z" fill="white"/>
<path d="M0 6.53476V13.0973L3.7375 16.7957C5.76875 18.8257 8.69375 21.7176 10.2104 23.2471L12.9729 26L13 19.4652V12.9305L6.5 6.45134L0 0V6.53476ZM6.58125 8.75936L11.4021 13.5422L11.3208 17.8524L11.2396 22.1626L6.31042 17.185L1.35417 12.2075V8.06417C1.35417 5.81176 1.43542 3.94866 1.57083 3.94866C1.67917 3.97647 3.92708 6.11765 6.58125 8.75936Z" fill="white"/>
<path d="M28 6.53476V13.0973L24.2625 16.7957C22.2312 18.8257 19.3062 21.7176 17.7896 23.2471L15.0271 26L15 19.4652V12.9305L21.5 6.45134L28 0V6.53476ZM21.4187 8.75936L16.5979 13.5422L16.6792 17.8524L16.7604 22.1626L21.6896 17.185L26.6458 12.2075V8.06417C26.6458 5.81176 26.5646 3.94867 26.4292 3.94867C26.3208 3.97647 24.0729 6.11765 21.4187 8.75936Z" fill="white"/>
</svg>
