<svg width="330" height="48" viewBox="0 0 330 48" fill="none" xmlns="http://www.w3.org/2000/svg">
<path d="M78 23.4697V38.9393H79.5698H81.1395L81.2651 26.3209L81.4535 13.7025L91.814 26.1996C98.9093 34.6928 102.614 38.6967 103.619 38.818L105 39V23.5303C105 8.42466 104.937 8 103.744 8C102.551 8 102.488 8.42466 102.488 21.407V34.8748L91.4372 21.407C84.0907 12.5499 79.9465 8 79.193 8C78.0628 8 78 8.78865 78 23.4697Z" fill="black"/>
<path d="M119.122 8.9588C106.098 14.2946 105.506 32.7218 118.136 38.7401C122.806 40.9737 129.844 40.1671 133.922 36.8787C140.04 32.0393 141.881 21.9261 137.869 15.7216C133.593 9.20697 125.569 6.35294 119.122 8.9588ZM131.357 12.8676C138.658 17.707 139.316 28.0684 132.738 34.2729C130.305 36.5685 129.121 37.189 126.621 37.5612C122.74 38.1196 121.293 37.8094 117.675 35.5758C112.874 32.6597 110.571 25.8969 112.282 20.0027C113.202 16.7143 117.544 12.061 120.438 11.1924C123.793 10.2617 128.463 10.9442 131.357 12.8676Z" fill="black"/>
<path d="M144 8.4297C144 8.73663 147.198 15.6733 151.009 23.9604C157.405 37.7109 158.154 39 159.651 39C161.148 39 161.896 37.6495 168.565 23.4693C175.642 8.36831 175.778 7.93861 174.145 8.12277C172.58 8.30693 171.831 9.53465 166.183 21.9347C162.849 29.4851 159.855 35.6238 159.651 35.6238C159.379 35.6238 156.453 29.4238 153.118 21.8119C147.743 9.53465 146.926 8 145.565 8C144.68 8 144 8.18416 144 8.4297Z" fill="black"/>
<path d="M185.548 21.1902C182.295 28.4843 179.233 35.4745 178.658 36.6902C177.702 39 177.702 39 179.233 39C180.508 39 181.019 38.2706 182.869 34.1373L184.974 29.2137L192.565 29.3961L200.22 29.5784L202.198 34.1373C203.793 37.7843 204.494 38.7569 205.706 38.8784C206.536 39 207.11 38.8176 206.982 38.5137C206.855 38.149 203.856 31.1588 200.348 22.9529C194.989 10.4314 193.777 8 192.693 8C191.608 8 190.396 10.1882 185.548 21.1902ZM196.138 19.4882C197.924 23.6216 199.391 27.0863 199.391 27.2078C199.391 27.3294 196.265 27.451 192.438 27.451H185.42L188.355 20.8863C189.886 17.3 191.481 13.7137 191.8 12.9235C192.119 12.1333 192.501 11.5863 192.629 11.7078C192.757 11.8294 194.351 15.3549 196.138 19.4882Z" fill="black"/>
<path d="M211 23.5V39H223H235V36.5686V34.1373H226.333H217.667V21.0686V8H214.333H211V23.5Z" fill="black"/>
<path d="M245.442 23.5303L239 39H242.188H245.31L246.904 35.1781L248.564 31.4168L254.608 31.2348L260.652 31.0528L262.312 34.8748L263.906 39L267.011 39C268.755 39 270 39 270 39C269.934 38.7573 267.294 31.4168 263.906 23.227L257.796 8.06065H254.807L251.818 8L245.442 23.5303ZM257.331 21.1644C258.527 24.3796 259.39 27.1096 259.257 27.2916C259.058 27.4129 256.866 27.4736 254.342 27.3523L249.693 27.1703L252.018 21.225C253.28 18.0098 254.475 15.3405 254.741 15.3405C254.94 15.3405 256.136 17.9491 257.331 21.1644Z" fill="black"/>
<path d="M274 24V40H283.491C296.081 40 298.242 39.1544 298.875 32.8799C299.191 29.3034 299.118 26.8235 296.081 25.0039C294.247 23.8745 294.183 23.8118 295.322 22.9961C300.257 19.4196 299.561 10.5725 294.12 8.69019C293.044 8.31372 288.046 8 283.111 8H274V24ZM292.905 14.22C293.791 15.0357 294.12 17.0954 294.12 17.8483C294.12 18.5385 293.791 20.1426 292.905 20.9583C291.576 22.3387 289.311 21.8039 285.072 21.8039H280.327V17.4118V13.0196H285.072C289.311 13.0196 291.576 12.8396 292.905 14.22ZM292.665 27.7647C294.563 29.5843 294.31 32.427 292.665 34.4349C291.589 35.7525 291.21 35.2941 286.085 35.4824H280.327V30.9647V26.1961H285.705C290.64 26.1961 291.273 26.3216 292.665 27.7647Z" fill="black"/>
<path d="M311.111 10.0566C307.255 11.6885 305.359 14.4687 305.359 18.3369C305.359 23.1722 307.647 24.9249 317.189 27.5843C322.091 28.914 324.051 30.425 323.463 32.48C323.267 33.1448 322.679 33.991 322.156 34.4141C320.522 35.6833 314.836 35.2602 310.327 33.5075C306.405 31.9965 306.274 31.9965 305.621 33.0844C305.229 33.6888 305 34.9882 305 35.8949C305 37.2245 305 38.1614 305 37.9347C305 38.1614 305.245 38.1614 306.225 38.388C307.14 38.8715 311.319 39.5875 311.515 39.5875C311.711 39.5875 310.637 39.2946 310.637 39.2946C312.794 40.3826 322.548 40.2164 325.293 38.7658C328.561 36.9526 329.933 34.8372 329.999 31.3921C330.064 26.2546 327.581 24.1392 318.692 21.9633C312.157 20.3315 309.869 17.6721 312.875 15.194C314.771 13.6226 320.13 13.7434 323.659 15.4358L326.339 16.705L327.777 14.3478L329.149 12.0511L326.077 10.661C321.764 8.72688 314.836 8.42468 311.111 10.0566Z" fill="black"/>
<path d="M0 12.0642V24.1797L8.05 31.0075C12.425 34.7551 18.725 40.0941 21.9917 42.9176L27.9417 48L28 35.9358V23.8717L14 11.9102L0 0V12.0642ZM14.175 16.1711L24.5583 25.0011L24.3833 32.9583L24.2083 40.9155L13.5917 31.7262L2.91667 22.5369V14.8877C2.91667 10.7294 3.09167 7.28984 3.38333 7.28984C3.61667 7.34118 8.45833 11.2941 14.175 16.1711Z" fill="black"/>
<path d="M59 12.0642V24.1797L51.2375 31.0075C47.0187 34.7551 40.9437 40.0941 37.7937 42.9176L32.0562 48L32 35.9358V23.8717L45.5 11.9102L59 0V12.0642ZM45.3312 16.1711L35.3187 25.0011L35.4875 32.9583L35.6562 40.9155L45.8937 31.7262L56.1875 22.5369V14.8877C56.1875 10.7294 56.0187 7.28984 55.7375 7.28984C55.5125 7.34118 50.8437 11.2941 45.3312 16.1711Z" fill="black"/>
</svg>
