<svg width="50" height="50" viewBox="0 0 50 50" fill="none" xmlns="http://www.w3.org/2000/svg">
<path opacity="0.15" d="M0 12C0 5.37258 5.37258 0 12 0H38C44.6274 0 50 5.37258 50 12V38C50 44.6274 44.6274 50 38 50H12C5.37258 50 0 44.6274 0 38V12Z" fill="#10C6FF"/>
<path d="M13.9473 27.8977C13.4241 27.8977 13 27.4735 13 26.9504C13 26.4272 13.4241 26.0031 13.9473 26.0031H36.0525C36.5757 26.0031 36.9998 26.4272 36.9998 26.9504C36.9998 27.4735 36.5757 27.8977 36.0525 27.8977H13.9473Z" fill="#10C6FF"/>
<path d="M25.0031 22.8413C22.5616 22.8413 20.5824 20.8621 20.5824 18.4206C20.5824 15.9791 22.5616 13.9999 25.0031 13.9999C27.4446 13.9999 29.4238 15.9791 29.4238 18.4206C29.4238 20.8621 27.4446 22.8413 25.0031 22.8413Z" fill="#10C6FF"/>
<path d="M25.0031 19.0522C25.3519 19.0522 25.6346 18.7694 25.6346 18.4206C25.6346 18.0719 25.3519 17.7891 25.0031 17.7891C24.6543 17.7891 24.3716 18.0719 24.3716 18.4206C24.3716 18.7694 24.6543 19.0522 25.0031 19.0522Z" fill="#10C6FF"/>
<path d="M22.4761 23.5143C20.8723 26.4333 16.3278 34.7534 16.1142 35.1436C15.9443 35.454 15.5527 35.5643 15.2459 35.3882C13.101 34.1572 12.3655 31.4285 13.6015 29.3004L19.3622 19.1409C19.6053 21.0632 20.8085 22.6862 22.4761 23.5143Z" fill="#03014C"/>
<path d="M30.6399 19.1361L36.3988 29.2958C37.6363 31.4291 36.9019 34.1571 34.7598 35.388C34.4527 35.5645 34.0605 35.4539 33.8908 35.143C30.0252 28.0603 28.3135 24.9274 27.5315 23.5113C29.1973 22.6815 30.3985 21.0581 30.6399 19.1361V19.1361Z" fill="#03014C"/>
</svg>
