<svg width="12" height="10" viewBox="0 0 12 10" fill="none" xmlns="http://www.w3.org/2000/svg">
<path d="M5.98182 2.94736L6.00669 3.30464L5.59211 3.26089C4.08304 3.09319 2.76467 2.52446 1.6453 1.56928L1.09806 1.09534L0.957098 1.44533C0.6586 2.22551 0.849307 3.04944 1.47118 3.60359C1.80284 3.90983 1.72822 3.95358 1.1561 3.77129C0.957098 3.71296 0.782974 3.66921 0.766391 3.69109C0.708349 3.74213 0.907348 4.40565 1.06489 4.66814C1.28047 5.03271 1.71993 5.38999 2.20084 5.60144L2.60713 5.76914L2.12622 5.77643C1.66189 5.77643 1.6453 5.78372 1.69505 5.93684C1.86088 6.41079 2.51592 6.9139 3.24558 7.13264L3.75966 7.28576L3.31192 7.51908C2.64859 7.85449 1.86918 8.04407 1.08976 8.05865C0.716641 8.06594 0.409851 8.09511 0.409851 8.11698C0.409851 8.1899 1.42143 8.59822 2.01013 8.75863C3.77625 9.23257 5.87403 9.02841 7.44943 8.21906C8.5688 7.64304 9.68817 6.49828 10.2105 5.38999C10.4925 4.79938 10.7744 3.72025 10.7744 3.20256C10.7744 2.86715 10.7992 2.82341 11.2636 2.42238C11.5372 2.18905 11.7942 1.93385 11.844 1.86094C11.9269 1.7224 11.9186 1.7224 11.4957 1.84636C10.791 2.0651 10.6915 2.03593 11.0397 1.70782C11.2967 1.47449 11.6035 1.05159 11.6035 0.927636C11.6035 0.905761 11.4792 0.942218 11.3382 1.00784C11.189 1.08076 10.8573 1.19013 10.6085 1.25575L10.1608 1.3797L9.7545 1.13909C9.53063 1.00784 9.21555 0.862013 9.04971 0.818264C8.62684 0.716184 7.9801 0.730767 7.59868 0.84743C6.56223 1.17554 5.90719 2.02135 5.98182 2.94736Z" fill="url(#paint0_linear_129_213)"/>
<defs>
<linearGradient id="paint0_linear_129_213" x1="0.409851" y1="0.992949" x2="11.9457" y2="2.2634" gradientUnits="userSpaceOnUse">
<stop stop-color="#FFC83A"/>
<stop offset="0.0001" stop-color="#FFC83A"/>
<stop offset="0.500845" stop-color="#FF008A"/>
<stop offset="1" stop-color="#6100FF"/>
</linearGradient>
</defs>
</svg>
