<svg width="14" height="10" viewBox="0 0 14 10" fill="none" xmlns="http://www.w3.org/2000/svg">
<path d="M6.7978 2.58514L6.82815 3.00547L6.32236 2.954C4.48129 2.7567 2.87288 2.0876 1.50725 0.963862L0.839609 0.406281L0.667641 0.818033C0.303473 1.7359 0.536136 2.70523 1.29482 3.35717C1.69945 3.71745 1.60841 3.76892 0.91042 3.55447C0.667641 3.48584 0.45521 3.43437 0.434978 3.46011C0.364168 3.52016 0.606946 4.30077 0.799146 4.60958C1.06216 5.03849 1.59829 5.45882 2.18501 5.70759L2.68068 5.90489L2.09396 5.91346C1.52748 5.91346 1.50725 5.92204 1.56794 6.10218C1.77026 6.65976 2.56941 7.25166 3.45959 7.509L4.08677 7.68915L3.54052 7.96365C2.73126 8.35824 1.78038 8.58127 0.829493 8.59843C0.374284 8.60701 0 8.64132 0 8.66706C0 8.75284 1.23412 9.23322 1.95234 9.42194C4.107 9.97952 6.66629 9.73933 8.58829 8.78715C9.95392 8.10948 11.3195 6.7627 11.9568 5.45882C12.3008 4.76399 12.6447 3.49442 12.6447 2.88537C12.6447 2.49078 12.6751 2.43931 13.2415 1.96751C13.5754 1.69301 13.889 1.39277 13.9496 1.30699C14.0508 1.144 14.0407 1.144 13.5248 1.28983C12.6649 1.54718 12.5436 1.51286 12.9684 1.12685C13.282 0.852346 13.6563 0.354812 13.6563 0.208983C13.6563 0.183249 13.5046 0.22614 13.3326 0.303343C13.1505 0.389125 12.7459 0.517797 12.4424 0.595001L11.8961 0.74083L11.4005 0.45775C11.1273 0.303343 10.7429 0.13178 10.5406 0.080311C10.0247 -0.0397834 9.2357 -0.022627 8.77037 0.114624C7.5059 0.500641 6.70676 1.49571 6.7978 2.58514Z" fill="black"/>
</svg>
