<svg width="50" height="50" viewBox="0 0 50 50" fill="none" xmlns="http://www.w3.org/2000/svg">
<path opacity="0.15" d="M0 12C0 5.37258 5.37258 0 12 0H38C44.6274 0 50 5.37258 50 12V38C50 44.6274 44.6274 50 38 50H12C5.37258 50 0 44.6274 0 38V12Z" fill="#10C6FF"/>
<path d="M31 11V39H25.6667V11H31Z" fill="#10C6FF"/>
<path d="M32.3333 11H34.3333C36.9107 11 39 13.0893 39 15.6667V34.3333C39 36.9107 36.9107 39 34.3333 39H32.3333V11Z" fill="#03014C"/>
<path d="M24.3334 11V39H19V11H24.3334Z" fill="#03014C"/>
<path d="M17.6667 11V39H15.6667C13.0893 39 11 36.9107 11 34.3333V15.6667C11 13.0893 13.0893 11 15.6667 11H17.6667Z" fill="#10C6FF"/>
</svg>
