<svg width="28" height="28" viewBox="0 0 28 28" fill="none" xmlns="http://www.w3.org/2000/svg">
<path d="M13.0831 0.0075349C13.0229 0.0130082 12.8313 0.0321647 12.6588 0.0458479C8.68192 0.404349 4.95679 2.54988 2.59746 5.84754C1.28368 7.68109 0.443402 9.76094 0.125904 11.9639C0.0136852 12.7329 0 12.9601 0 14.0027C0 15.0454 0.0136852 15.2725 0.125904 16.0415C0.886804 21.2986 4.62835 25.7156 9.70284 27.3521C10.6115 27.6449 11.5695 27.8447 12.6588 27.9651C13.0831 28.0116 14.9169 28.0116 15.3412 27.9651C17.2215 27.7571 18.8145 27.2919 20.3855 26.4901C20.6264 26.3669 20.6729 26.3341 20.6401 26.3067C20.6182 26.2903 19.5918 24.9137 18.3601 23.2499L16.1212 20.2259L13.3157 16.0744C11.772 13.792 10.5021 11.9256 10.4911 11.9256C10.4802 11.9229 10.4692 13.7674 10.4637 16.0196C10.4555 19.9632 10.4528 20.1219 10.4035 20.2149C10.3324 20.349 10.2776 20.4038 10.1627 20.464C10.0751 20.5077 9.99844 20.516 9.58514 20.516H9.11163L8.98573 20.4366C8.90362 20.3846 8.8434 20.3162 8.80235 20.2368L8.74487 20.1137L8.75034 14.6267L8.75855 9.13698L8.8434 9.03026C8.88719 8.97279 8.98025 8.8989 9.04594 8.86332C9.15816 8.80859 9.20196 8.80311 9.67546 8.80311C10.2338 8.80311 10.3269 8.82501 10.4719 8.98373C10.513 9.02752 12.0321 11.3154 13.8495 14.0712C15.6669 16.827 18.1521 20.5898 19.3728 22.4371L21.5898 25.7949L21.7021 25.7211C22.6956 25.0752 23.7466 24.1557 24.5787 23.1979C26.3496 21.1645 27.4909 18.6851 27.8741 16.0415C27.9863 15.2725 28 15.0454 28 14.0027C28 12.9601 27.9863 12.7329 27.8741 11.9639C27.1132 6.70684 23.3717 2.2899 18.2972 0.653383C17.4022 0.363299 16.4497 0.163524 15.3822 0.0431113C15.1195 0.0157448 13.3103 -0.0143583 13.0831 0.0075349ZM18.8145 8.47472C18.9458 8.5404 19.0526 8.66628 19.0909 8.79764C19.1128 8.86879 19.1183 10.3904 19.1128 13.8194L19.1046 18.7399L18.2369 17.4099L17.3666 16.0799V12.5031C17.3666 10.1906 17.3775 8.89069 17.3939 8.82774C17.4377 8.67449 17.5335 8.55408 17.6649 8.48293C17.7771 8.42546 17.8182 8.41998 18.2479 8.41998C18.653 8.41998 18.7241 8.42546 18.8145 8.47472Z" fill="black"/>
</svg>
